<svg width="131" height="131" viewBox="0 0 131 131" fill="none" xmlns="http://www.w3.org/2000/svg">
<path fill-rule="evenodd" clip-rule="evenodd" d="M65.4997 131C67.7001 131 73.7751 115.469 76.92 93.0704C94.9822 106.685 110.26 113.371 111.816 111.815C113.372 110.26 106.685 94.9822 93.0709 76.9201C115.47 73.7752 131 67.7004 131 65.5C131 63.2997 115.47 57.2248 93.0709 54.0799C106.685 36.0178 113.372 20.7404 111.816 19.1845C110.26 17.6286 94.9822 24.3148 76.9199 37.9296C73.7751 15.5307 67.7001 0 65.4997 0C63.2994 0 57.2245 15.5304 54.0796 37.929C36.0177 24.3146 20.7406 17.6286 19.1847 19.1845C17.6289 20.7404 24.315 36.0177 37.9295 54.0798C15.5306 57.2247 0 63.2996 0 65.5C0 67.7004 15.5306 73.7753 37.9294 76.9202C24.3149 94.9822 17.6288 110.26 19.1847 111.815C20.7406 113.371 36.0177 106.685 54.0796 93.071C57.2245 115.47 63.2994 131 65.4997 131ZM65.5032 92.7077C65.5032 77.6842 77.6851 65.5022 92.7087 65.5022C77.6851 65.5022 65.5032 53.3203 65.5032 38.2923C65.5032 53.3203 53.3212 65.5022 38.2933 65.5022C53.3212 65.5022 65.5032 77.6842 65.5032 92.7077Z" fill="#F63D64"/>
</svg>
