<svg width="5" height="18" viewBox="0 0 5 18" fill="none" xmlns="http://www.w3.org/2000/svg">
<path d="M4.08034 0.199999V11.912H0.912344V0.199999H4.08034ZM4.77634 15.056C4.77634 15.376 4.71234 15.68 4.58434 15.968C4.47234 16.24 4.31234 16.48 4.10434 16.688C3.89634 16.88 3.64834 17.032 3.36034 17.144C3.08834 17.272 2.80034 17.336 2.49634 17.336C2.17634 17.336 1.88034 17.272 1.60834 17.144C1.33634 17.032 1.09634 16.88 0.888344 16.688C0.680344 16.48 0.512344 16.24 0.384344 15.968C0.272344 15.68 0.216344 15.376 0.216344 15.056C0.216344 14.736 0.272344 14.44 0.384344 14.168C0.512344 13.88 0.680344 13.64 0.888344 13.448C1.09634 13.24 1.33634 13.08 1.60834 12.968C1.88034 12.84 2.17634 12.776 2.49634 12.776C2.80034 12.776 3.08834 12.84 3.36034 12.968C3.64834 13.08 3.89634 13.24 4.10434 13.448C4.31234 13.64 4.47234 13.88 4.58434 14.168C4.71234 14.44 4.77634 14.736 4.77634 15.056Z" fill="#FFF2E8"/>
</svg>
