<svg width="23" height="22" viewBox="0 0 23 22" fill="none" xmlns="http://www.w3.org/2000/svg">
<path d="M22.1804 14.1316L21.1864 6.65189C21.0776 5.82289 20.5862 5.09893 19.8623 4.68631L12.4089 0.47384C11.5986 0.016207 10.6083 0.016207 9.79434 0.47384L2.34093 4.68631C1.61697 5.09893 1.12557 5.82289 1.01304 6.65189L0.0227483 14.1316C-0.119793 15.2194 0.416619 16.2847 1.3769 16.8136L9.8206 21.4537C10.6196 21.8888 11.5836 21.8888 12.3788 21.4537L20.8225 16.8136C21.7828 16.2847 22.3192 15.2231 22.1767 14.1316H22.1804ZM18.0918 6.1755L12.0337 9.61525C11.4561 9.94534 10.7471 9.94534 10.1732 9.61525L4.10769 6.1755C3.71383 5.95043 3.71383 5.38027 4.10769 5.1552L10.1732 1.7117C10.7471 1.38535 11.4561 1.38535 12.0337 1.7117L18.0918 5.1552C18.4894 5.38027 18.4894 5.95043 18.0918 6.1755Z" fill="#FFFF2B"/>
<path d="M13.3613 4.62256L11.9509 7.27082C11.6846 7.76597 11.0694 7.94227 10.5818 7.66844L7.29209 5.79665C6.88322 5.56408 6.98825 4.95265 7.44588 4.86638L12.8099 3.86483C13.2376 3.78606 13.5677 4.23994 13.3613 4.6188V4.62256Z" fill="#FFFF2B"/>
</svg>
