<svg width="26" height="23" viewBox="0 0 26 23" fill="none" xmlns="http://www.w3.org/2000/svg">
<path d="M5.18569 15.5718C5.53454 15.5718 5.83088 15.3017 5.85713 14.9491C5.88714 14.5778 5.60956 14.2514 5.23821 14.2214C2.43239 13.9963 1.77219 13.3661 1.74969 13.2124C1.73093 13.0961 1.9635 12.6985 2.86752 12.1583C3.1601 12.4321 3.55021 12.6047 3.98159 12.6047C4.88185 12.6047 5.61332 11.8732 5.61332 10.973C5.61332 10.9655 5.61332 10.9579 5.61332 10.9542C5.95091 10.8379 6.30351 10.7216 6.70113 10.6016C7.05748 10.4928 7.26004 10.1177 7.15501 9.7576C7.04623 9.40125 6.67112 9.19869 6.31101 9.30372C5.88714 9.43126 5.45577 9.5738 5.02439 9.72384C4.74306 9.48752 4.38296 9.34123 3.98534 9.34123C3.11134 9.34123 2.40238 10.0314 2.36112 10.8942C1.11951 11.6031 0.271758 12.4471 0.4143 13.4112C0.590601 14.6078 2.17732 15.3355 5.13318 15.5755C5.15193 15.5755 5.17069 15.5755 5.18944 15.5755L5.18569 15.5718Z" fill="#FFFF2B"/>
<path d="M25.7864 9.69371C25.4 7.04919 17.9616 7.25925 13.6291 7.79941C13.2577 7.84442 12.9952 8.18202 13.0402 8.55338C13.0852 8.92474 13.4228 9.18356 13.7942 9.1423C20.9625 8.24579 24.361 9.3261 24.4435 9.88877C24.4923 10.2226 23.1794 11.528 18.5243 12.7809C18.1642 12.8784 17.9504 13.2497 18.0479 13.6098C18.1304 13.9099 18.4005 14.1125 18.7006 14.1125C18.7568 14.1125 18.8169 14.105 18.8769 14.09C21.5889 13.3585 26.094 11.8206 25.7826 9.69746L25.7864 9.69371Z" fill="#FFFF2B"/>
<path d="M9.76556 18.3326C7.58243 20.4894 6.59214 20.572 6.44585 20.4782C6.32206 20.3957 6.02947 19.6042 6.85471 17.2222C7.59368 15.0991 8.93281 12.5034 10.6358 9.91137C12.11 7.66071 13.5054 5.93146 14.7057 4.65609C14.9008 4.73862 15.1184 4.78363 15.3434 4.78363C16.2437 4.78363 16.9752 4.05217 16.9752 3.1519C16.9752 2.9756 16.9414 2.81055 16.8889 2.64926C17.8079 1.95531 18.4418 1.71149 18.6594 1.85403C18.7869 1.93655 19.087 2.76179 18.2017 5.24126C18.078 5.59386 18.2618 5.98023 18.6106 6.10401C18.9632 6.2278 19.3496 6.04399 19.4734 5.69514C20.4149 3.04687 20.3924 1.37389 19.3983 0.721198C18.5619 0.173538 17.3428 0.608665 15.9699 1.64397C15.7748 1.56144 15.5648 1.51643 15.3397 1.51643C14.4394 1.51643 13.708 2.24789 13.708 3.14815C13.708 3.3207 13.7417 3.482 13.7905 3.63955C12.32 5.1925 10.8159 7.15807 9.49923 9.1649C7.73997 11.8469 6.34456 14.5515 5.57184 16.7759C4.67908 19.3416 4.72409 20.9696 5.69937 21.6073C5.95069 21.7723 6.23578 21.8548 6.55837 21.8548C7.59368 21.8548 8.98533 20.9958 10.7108 19.2928C10.9772 19.0303 10.9809 18.6026 10.7183 18.3363C10.4558 18.07 10.0281 18.0662 9.76181 18.3288L9.76556 18.3326Z" fill="#FFFF2B"/>
<path d="M16.7428 15.4067C16.3827 15.5042 16.1689 15.8756 16.2664 16.2357C17.0992 19.3153 16.7391 20.617 16.4352 20.7633C16.2552 20.8495 15.8876 20.7332 15.3812 20.3694C15.4412 20.2006 15.4787 20.0205 15.4787 19.8292C15.4787 18.929 14.7472 18.1975 13.847 18.1975C13.6707 18.1975 13.5019 18.2313 13.3443 18.2838C12.6841 17.4398 11.9602 16.367 11.195 15.0128C11.0749 14.799 10.9549 14.5815 10.8349 14.3601C10.6586 14.03 10.2497 13.9063 9.91959 14.0826C9.58949 14.2589 9.46571 14.6677 9.64201 14.9978C9.76579 15.2304 9.88958 15.4555 10.0171 15.6768C10.7186 16.9184 11.5176 18.145 12.3428 19.1915C12.2603 19.3866 12.2153 19.6004 12.2153 19.8217C12.2153 20.722 12.9467 21.4535 13.847 21.4535C14.057 21.4535 14.2559 21.4122 14.4397 21.3372C15.0961 21.8323 15.7338 22.1286 16.319 22.1286C16.5628 22.1286 16.7991 22.0799 17.0204 21.9711C18.6296 21.1946 18.2095 18.2238 17.5718 15.8718C17.4743 15.5117 17.1029 15.2979 16.7428 15.3954V15.4067Z" fill="#FFFF2B"/>
<path d="M7.47747 8.59465C7.53748 8.59465 7.59375 8.58714 7.65377 8.57214C8.01387 8.47461 8.22768 8.10325 8.13015 7.74315C7.29741 4.6635 7.65751 3.36563 7.96135 3.21558C8.15641 3.12181 8.98915 3.2756 10.5346 5.06862C10.7784 5.34995 11.2061 5.38371 11.4874 5.13989C11.7687 4.89607 11.8025 4.46845 11.5587 4.18712C9.85941 2.21404 8.449 1.47883 7.37244 1.99648C5.76322 2.77296 6.18334 5.74007 6.82103 8.09575C6.90355 8.39584 7.17362 8.59465 7.47371 8.59465H7.47747Z" fill="#FFFF2B"/>
<path d="M14.0717 14.9078C15.332 14.9078 16.3523 13.8875 16.3523 12.6271C16.3523 11.3667 15.332 10.3464 14.0717 10.3464C12.8113 10.3464 11.791 11.3667 11.791 12.6271C11.791 13.8875 12.8113 14.9078 14.0717 14.9078Z" fill="#FFFF2B"/>
</svg>
