<svg width="18" height="25" viewBox="0 0 18 25" fill="none" xmlns="http://www.w3.org/2000/svg">
<path d="M17.3322 15.5478C17.2984 15.2927 17.2534 15.0414 17.1896 14.79C16.9908 13.9723 16.5257 13.2183 16.2706 12.4118C16.0043 11.5641 15.7455 10.7013 15.7042 9.80483C15.7004 9.70355 15.6967 9.60228 15.6592 9.50475C15.5842 9.30219 15.3403 9.18966 15.1453 9.25718C15.1453 9.25718 15.1078 9.27218 15.044 9.30594C14.6201 9.51976 14.2375 9.81609 13.9112 10.1574C13.8136 10.2587 13.7236 10.3637 13.6373 10.4725C13.5436 10.5926 13.4198 10.7689 13.3935 10.7614C13.3673 10.7539 13.371 10.6526 13.3635 10.5588C13.356 10.4575 13.3485 10.36 13.341 10.2587C13.3223 10.0599 13.296 9.8611 13.2622 9.66229C13.1947 9.26843 13.1009 8.87831 12.9734 8.49945C12.8459 8.12059 12.6846 7.74549 12.4895 7.39289C11.9644 6.43636 11.2629 5.59986 10.659 4.69585C9.91626 3.59303 9.72871 2.3139 10.0138 0.99727C10.1076 0.573397 9.63493 0.277064 9.31609 0.554645C6.55154 2.97035 5.55375 6.6014 5.19364 8.79579C5.18614 8.84455 5.11862 8.84455 5.10362 8.79579C4.72476 7.37788 3.35936 6.42885 2.61664 6.19253C2.25279 6.08 1.9452 6.47762 2.114 6.83022C2.49286 7.6217 2.60914 8.45068 2.3053 9.28343C1.7914 10.6863 0.789862 11.8642 0.392246 13.3158C-0.0241251 14.8313 -0.136658 16.3842 0.178434 17.9335C0.71484 20.5442 2.47035 22.8136 4.8673 23.9839C5.70004 24.3891 6.5928 24.6629 7.51182 24.7867C10.1151 25.143 12.7821 24.2953 14.6952 22.491C16.5669 20.7243 17.666 18.1097 17.3322 15.544V15.5478ZM5.37369 20.2854C4.70225 20.2854 4.44342 19.6965 4.32714 19.0888C4.26337 18.7699 4.24086 18.4436 4.21461 18.1923C4.13959 17.442 4.12083 16.6881 4.18835 15.9379C4.24837 15.3264 4.31214 14.5762 4.72851 14.0848C4.85604 13.9348 5.02484 13.8222 5.2199 13.7885C5.66628 13.7097 6.0789 13.976 6.27771 14.3587C6.44651 14.6775 6.40149 15.0226 6.36023 15.3677C6.31147 15.7316 6.28896 16.0992 6.27395 16.463C6.2552 16.9244 6.25895 17.3858 6.28521 17.8434C6.30021 18.0722 6.32647 18.2936 6.34898 18.5186C6.36773 18.7249 6.424 18.935 6.42025 19.1488C6.4165 19.7152 5.96637 20.2816 5.37369 20.2816V20.2854ZM8.70841 22.4385C7.89443 22.4385 7.23799 21.8383 7.23799 21.0994C7.23799 20.8105 7.4743 20.5742 7.76314 20.5742C8.05197 20.5742 8.28829 20.8105 8.28829 21.0994C8.28829 21.2344 8.46084 21.3844 8.70466 21.3844C8.94848 21.3844 9.11728 21.2344 9.11728 21.0994C9.11728 20.8105 9.3536 20.5742 9.64243 20.5742C9.93127 20.5742 10.1676 20.8105 10.1676 21.0994C10.1676 21.8346 9.51115 22.4385 8.70091 22.4385H8.70841ZM13.2022 18.1923C13.1797 18.4436 13.1535 18.7699 13.0897 19.0888C12.9734 19.6965 12.7146 20.2854 12.0431 20.2854C11.4505 20.2854 11.0003 19.7152 10.9966 19.1526C10.9928 18.9425 11.0491 18.7287 11.0678 18.5224C11.0904 18.2973 11.1166 18.0722 11.1316 17.8472C11.1579 17.3895 11.1616 16.9282 11.1429 16.4668C11.1279 16.1029 11.1016 15.7353 11.0566 15.3714C11.0153 15.0301 10.9741 14.6812 11.1391 14.3624C11.3379 13.9798 11.7505 13.7135 12.1969 13.7922C12.3882 13.826 12.5608 13.9385 12.6883 14.0886C13.1047 14.58 13.1685 15.3264 13.2285 15.9416C13.296 16.6918 13.2772 17.4458 13.2022 18.196V18.1923Z" fill="#FFFF2B"/>
</svg>
