<svg width="97" height="68" viewBox="0 0 97 68" fill="none" xmlns="http://www.w3.org/2000/svg">
<path d="M91.9473 0.517349H5.15597C2.51987 0.517349 0.40097 2.65293 0.40097 5.27235V56.9267C0.40097 59.5628 2.51987 61.6817 5.15597 61.6817H16.2009C16.2009 61.6817 16.2176 61.6316 16.2343 61.615L20.6723 53.8068C22.0905 51.3041 24.7766 49.7525 27.663 49.7525H69.4403C72.3267 49.7525 74.9961 51.3041 76.431 53.8068L80.869 61.615C80.869 61.615 80.8857 61.665 80.9023 61.6817H91.9473C94.5667 61.6817 96.7023 59.5628 96.7023 56.9267V5.27235C96.7023 2.65293 94.5667 0.517349 91.9473 0.517349ZM71.5091 43.8463H25.5775C15.7338 43.8463 7.70866 35.8212 7.70866 25.9775C7.70866 16.1338 15.7338 8.10867 25.5775 8.10867H71.5091C81.3695 8.10867 89.3779 16.1171 89.3779 25.9775C89.3779 35.8378 81.3695 43.8463 71.5091 43.8463Z" fill="#FFF2E8"/>
<path d="M71.5091 14.115H25.5774C19.0372 14.115 13.715 19.4206 13.715 25.9775C13.715 32.5344 19.0372 37.84 25.5774 37.84H71.5091C78.066 37.84 83.3716 32.5177 83.3716 25.9775C83.3716 19.4373 78.066 14.115 71.5091 14.115ZM26.2949 32.7346C22.5576 32.7346 19.5378 29.7148 19.5378 25.9775C19.5378 22.2402 22.5576 19.2204 26.2949 19.2204C30.0321 19.2204 33.052 22.2402 33.052 25.9775C33.052 29.7148 30.0155 32.7346 26.2949 32.7346ZM48.5516 31.4332C43.7966 31.4332 39.9426 27.9129 39.9426 23.5917C39.9426 21.8899 41.3274 20.5051 43.0291 20.5051C44.7309 20.5051 46.1157 21.8899 46.1157 23.5917C46.1157 24.3925 47.1168 25.2768 48.5516 25.2768C49.9865 25.2768 50.9875 24.3925 50.9875 23.5917C50.9875 21.8899 52.3723 20.5051 54.0741 20.5051C55.7759 20.5051 57.1607 21.8899 57.1607 23.5917C57.1607 27.9129 53.2899 31.4332 48.5516 31.4332ZM70.8084 32.7346C67.0711 32.7346 64.0513 29.7148 64.0513 25.9775C64.0513 22.2402 67.0711 19.2204 70.8084 19.2204C74.5456 19.2204 77.5655 22.2402 77.5655 25.9775C77.5655 29.7148 74.5456 32.7346 70.8084 32.7346Z" fill="#FFF2E8"/>
<path d="M73.8784 67.6212H23.2251C21.6734 67.6212 20.6891 65.9361 21.4565 64.5847L25.8945 56.7932C26.2616 56.1592 26.929 55.7588 27.6631 55.7588H69.4403C70.1745 55.7588 70.8418 56.1592 71.2089 56.7932L75.6469 64.5847C76.4144 65.9361 75.4467 67.6212 73.8784 67.6212Z" fill="#FFF2E8"/>
</svg>
