<svg width="97" height="92" viewBox="0 0 97 92" fill="none" xmlns="http://www.w3.org/2000/svg">
<path d="M48.3022 91.4321C39.7639 91.4321 32.8098 85.0957 32.8098 77.302C32.8098 74.2447 35.2968 71.7577 38.3541 71.7577C41.4114 71.7577 43.8984 74.2447 43.8984 77.302C43.8984 78.7277 45.7043 80.3276 48.2864 80.3276C50.8684 80.3276 52.6743 78.7435 52.6743 77.302C52.6743 74.2447 55.1613 71.7577 58.2186 71.7577C61.2759 71.7577 63.763 74.2447 63.763 77.302C63.763 85.0957 56.8088 91.4321 48.2705 91.4321H48.3022Z" fill="#FFF2E8"/>
<path d="M2.03087 56.0909C1.3814 52.7326 1.12793 49.2952 0.858636 46.6339C0.0824303 38.7451 -0.123499 30.7613 0.589343 22.8408C1.1913 16.2827 1.90415 8.26715 6.46634 3.08717C8.17716 1.13873 10.5058 -0.0018158 13.1195 -0.0018158C17.1906 -0.0018158 20.7865 2.61194 22.6558 6.19199C24.4141 9.56611 23.9706 13.2254 23.5112 16.8371C23.0201 20.6548 22.7825 24.5358 22.6082 28.3851C22.4023 33.2483 22.4498 38.1115 22.7508 42.9746C22.8934 45.3508 23.131 47.7269 23.3844 50.103C23.6221 52.3049 24.1765 54.5385 24.1607 56.7721C24.1131 62.7441 19.3608 68.7161 13.1195 68.7161C5.99111 68.7161 3.26647 62.5223 2.03087 56.0751V56.0909Z" fill="#FFF2E8"/>
<path d="M94.5736 56.0909C95.2231 52.7327 95.4765 49.2952 95.7458 46.6339C96.522 38.7451 96.728 30.7613 96.0151 22.8408C95.4132 16.2827 94.7003 8.26717 90.1381 3.08718C88.4273 1.13875 86.0987 -0.00180054 83.485 -0.00180054C79.4138 -0.00180054 75.8179 2.61195 73.9487 6.192C72.1904 9.56612 72.6339 13.2254 73.0933 16.8371C73.5844 20.6548 73.822 24.5358 73.9962 28.3851C74.2022 33.2483 74.1546 38.1115 73.8537 42.9746C73.7111 45.3508 73.4735 47.7269 73.22 50.1031C72.9824 52.305 72.428 54.5385 72.4438 56.7721C72.4913 62.7441 77.2436 68.7162 83.485 68.7162C90.6134 68.7162 93.338 62.5223 94.5736 56.0751V56.0909Z" fill="#FFF2E8"/>
</svg>
