<svg width="98" height="104" viewBox="0 0 98 104" fill="none" xmlns="http://www.w3.org/2000/svg">
<path d="M96.928 56.7583C96.5887 51.7938 95.5172 46.9186 92.8207 42.6327C92.8068 42.6108 92.7929 42.589 92.779 42.5672C92.4224 42.0071 91.6391 42.0011 91.2145 42.5117C87.9395 46.4494 83.5038 49.3903 78.4256 50.7911C78.0845 50.8851 77.8158 51.1464 77.6961 51.4793C76.3399 55.2491 72.7633 57.919 68.5518 57.919C62.5336 57.919 57.7656 52.4724 58.9978 46.1864C59.73 42.5255 62.6586 39.5432 66.3017 38.7218C69.4627 38.0055 72.4201 38.8507 74.6055 40.618C75.1006 41.0184 75.0062 41.7715 74.4442 42.0708C72.7018 42.9989 70.7888 43.6681 68.7661 44.0077C66.8553 44.3292 65.4445 46.0078 65.7302 48.0079C65.9624 49.7401 67.7124 50.8473 69.4268 50.5794C81.6595 48.7758 91.017 38.2396 91.017 25.5426C91.017 11.5599 79.6772 0.220108 65.6766 0.220108C54.1273 0.220108 44.3792 7.98567 41.3552 18.5938C41.2228 19.0581 40.7899 19.3754 40.3075 19.3581C36.0853 19.2066 31.8882 19.9492 28.3357 21.7925C24.1034 24.0069 20.8711 27.3999 18.1924 31.275C16.0316 34.418 7.35268 49.3651 2.58462 59.7405C-1.16554 67.9373 1.13813 72.2232 6.58479 75.4555L31.0144 89.974C31.8659 90.4803 32.7025 90.905 33.5339 91.2338C34.1844 91.4911 34.8306 90.9468 34.7652 90.2503C33.6087 77.9437 33.454 60.4858 33.7288 56.3118C34.1931 49.5437 35.8539 43.9541 38.8005 39.2218C42.4617 33.3836 48.5141 28.7335 55.4527 26.0871C56.1949 25.804 56.3688 24.8168 55.7199 24.3586C55.1851 23.9811 54.6407 23.6249 54.0869 23.2925C52.3925 22.2913 50.5386 21.4761 48.5941 20.8354C48.0767 20.6649 47.7715 20.1206 47.944 19.6039C50.7562 11.1795 59.4056 5.40795 69.0518 7.11326C76.5164 8.41689 82.5702 14.3636 84.0524 21.8103C84.8172 25.6832 84.3513 29.3929 82.9925 32.6423C82.7754 33.1616 82.1584 33.3635 81.6506 33.1208C77.507 31.1408 72.9056 30.0428 68.5518 30.0428C59.4085 30.0428 49.1224 34.8466 44.265 42.6327C41.5863 46.9186 40.4791 51.7938 40.1398 56.7583C39.8898 60.7942 40.0505 79.1164 41.3184 91.1705C42.3363 100.671 46.783 103.314 53.4797 103.314H83.606C90.3206 103.314 94.7493 100.671 95.7672 91.1705C97.0351 79.1164 97.2137 60.7942 96.928 56.7583ZM56.4977 86.5631C54.069 86.5631 53.1404 84.4559 52.7118 82.2415C52.4796 81.0986 52.3904 79.92 52.3011 79.0092C52.0332 76.3127 51.9618 73.5804 52.2118 70.866C52.4261 68.6159 52.6582 65.8837 54.2297 64.0979C54.819 63.4371 55.6048 63.0443 56.4977 63.0443C57.8906 63.0443 59.1228 63.955 59.7657 65.1693C60.3728 66.3301 60.2121 67.5802 60.0514 68.8124C59.8907 70.116 59.8014 71.4553 59.7478 72.759C59.6764 74.4376 59.6942 76.0984 59.8014 77.7592C59.855 78.5806 59.9264 79.3842 60.0157 80.2057C60.0871 80.9557 60.2836 81.7236 60.2836 82.4737C60.2657 84.5273 58.6406 86.5631 56.4977 86.5631ZM68.5518 94.3492C65.6231 94.3492 63.248 92.1705 63.248 89.5097C63.248 88.4561 64.0873 87.6167 65.1409 87.6167C66.1945 87.6167 67.0338 88.4561 67.0338 89.5097C67.0338 89.9918 67.6589 90.5454 68.5518 90.5454C69.4447 90.5454 70.0518 89.9918 70.0518 89.5097C70.0518 88.4561 70.8912 87.6167 71.9448 87.6167C72.9984 87.6167 73.8556 88.4561 73.8556 89.5097C73.8556 92.1705 71.4626 94.3492 68.5518 94.3492ZM84.7846 79.0092C84.6953 79.92 84.606 81.0986 84.3739 82.2415C83.9453 84.4559 83.0167 86.5631 80.588 86.5631C78.445 86.5631 76.82 84.5273 76.8021 82.4737C76.8021 81.7236 76.9986 80.9557 77.07 80.2057C77.1593 79.3842 77.2307 78.5806 77.2843 77.7592C77.3914 76.0984 77.4093 74.4376 77.3379 72.759C77.2843 71.4553 77.195 70.116 77.0343 68.8124C76.8736 67.5802 76.7128 66.3301 77.32 65.1693C77.9629 63.955 79.1951 63.0443 80.588 63.0443C81.4809 63.0443 82.2666 63.4371 82.856 64.0979C84.4275 65.8837 84.6596 68.6159 84.8739 70.866C85.1239 73.5804 85.0525 76.3127 84.7846 79.0092Z" fill="#FFF2E8"/>
</svg>
