<svg width="97" height="80" viewBox="0 0 97 80" fill="none" xmlns="http://www.w3.org/2000/svg">
<path d="M95.505 38.5878C95.4016 38.6174 95.0024 38.8095 94.3668 39.0904C88.5579 41.8101 82.8228 45.934 83.0002 48.2251C83.0889 49.2598 84.9809 50.8413 90.0656 52.1864C91.2333 52.4968 91.9427 53.6349 91.6915 54.8174C91.455 55.9851 90.3169 56.7685 89.164 56.5912C82.2316 55.5861 62.898 54.6844 56.5717 62.5036C53.9407 65.7406 53.7337 70.4558 55.9508 76.4717C56.3795 77.6098 55.7882 78.8958 54.6501 79.354C54.384 79.4575 54.118 79.5166 53.8372 79.5166C52.9503 79.5166 52.1078 78.9845 51.7531 78.0976C51.6939 77.9942 47.4221 67.677 37.5484 65.4302C30.0839 63.7304 21.2892 66.8492 11.3268 74.6832C9.05049 76.7082 7.17337 78.2602 6.22738 79.014C5.29617 79.7827 3.90668 79.6496 3.1085 78.7184C2.31033 77.802 2.39902 76.4126 3.30067 75.5848C4.97093 74.0919 6.59684 72.7025 8.1932 71.4314C15.7907 64.6321 23.7725 55.8817 23.5951 51.8169C23.4178 48.2399 13.4553 46.1262 5.17789 45.7123C3.685 45.7271 2.67985 45.6532 2.54682 45.6384C1.34955 45.5201 0.447897 44.5002 0.507021 43.2882C0.566145 42.0909 1.57129 41.1449 2.75377 41.1449H2.76857C3.35981 41.1597 4.29103 41.1745 5.45873 41.2336C8.96185 41.1449 14.0761 40.332 15.8498 37.2723C17.4905 34.4343 16.2342 29.6453 12.2285 23.3781C11.3268 22.1365 10.8095 21.2644 10.706 21.1018C10.0852 20.0819 10.3956 18.7221 11.4155 18.0569C12.4206 17.3918 13.7952 17.6578 14.49 18.6629C14.9629 19.3429 15.4064 19.9932 15.8351 20.6584C18.747 24.7084 26.2557 33.8579 34.3114 32.7936C41.4802 31.8624 48.043 22.8164 53.379 6.54245C53.9998 4.41398 54.4876 2.89152 54.6945 2.31506C55.0788 1.14736 56.3351 0.511772 57.5028 0.881299C58.6705 1.25083 59.3357 2.49244 58.9957 3.67492C58.5819 5.04956 58.1681 6.39464 57.7542 7.69537C55.1527 16.7118 51.7235 32.5128 55.3449 38.573C56.0544 39.7851 56.9855 40.4502 58.2863 40.672C72.5796 43.17 88.8535 36.6367 92.741 34.9517C93.1253 34.7743 93.4357 34.6413 93.6574 34.5378C94.7807 34.05 96.0962 34.5526 96.5988 35.6612C97.1161 36.7845 96.6284 38.1 95.5198 38.6469L95.505 38.5878Z" fill="#FFF2E8"/>
</svg>
