<svg width="97" height="94" viewBox="0 0 97 94" fill="none" xmlns="http://www.w3.org/2000/svg">
<path d="M96.4255 60.7714L92.1133 28.3245C91.6414 24.7283 89.5098 21.5878 86.3692 19.7978L54.0363 1.52408C50.5215 -0.461132 46.2256 -0.461132 42.6945 1.52408L10.3615 19.7978C7.22097 21.5878 5.08929 24.7283 4.60113 28.3245L0.305225 60.7714C-0.313121 65.4903 2.01384 70.1117 6.17954 72.4061L42.8084 92.5348C46.2744 94.4224 50.4563 94.4224 53.9061 92.5348L90.5349 72.4061C94.7006 70.1117 97.0275 65.5066 96.4092 60.7714H96.4255ZM78.6887 26.2579L52.409 41.1796C49.9031 42.6115 46.8276 42.6115 44.338 41.1796L18.0257 26.2579C16.3172 25.2816 16.3172 22.8082 18.0257 21.8319L44.338 6.89393C46.8276 5.47824 49.9031 5.47824 52.409 6.89393L78.6887 21.8319C80.4136 22.8082 80.4136 25.2816 78.6887 26.2579Z" fill="#FFF2E8"/>
<path d="M58.1694 19.5213L52.051 31.0095C50.8957 33.1574 48.2271 33.9222 46.1117 32.7343L31.8409 24.6145C30.0672 23.6056 30.5228 20.9532 32.508 20.579L55.7773 16.2343C57.6324 15.8925 59.0643 17.8615 58.1694 19.505V19.5213Z" fill="#FFF2E8"/>
</svg>
