<svg width="97" height="83" viewBox="0 0 97 83" fill="none" xmlns="http://www.w3.org/2000/svg">
<path d="M18.4957 58.0206C19.8184 58.0206 20.9419 56.9966 21.0415 55.6598C21.1553 54.2518 20.1028 53.0145 18.6948 52.9007C8.05671 52.0473 5.5536 49.658 5.46827 49.0749C5.39716 48.634 6.27894 47.1265 9.70646 45.0785C10.8158 46.1167 12.2949 46.771 13.9304 46.771C17.3437 46.771 20.117 43.9976 20.117 40.5843C20.117 40.5559 20.117 40.5275 20.117 40.5132C21.397 40.0723 22.7339 39.6315 24.2414 39.1764C25.5925 38.7639 26.3605 37.3417 25.9623 35.9764C25.5499 34.6253 24.1277 33.8573 22.7623 34.2555C21.1552 34.7391 19.5197 35.2795 17.8842 35.8484C16.8175 34.9524 15.4522 34.3977 13.9447 34.3977C10.6309 34.3977 7.94292 37.0146 7.78647 40.2857C3.07896 42.9737 -0.135236 46.1736 0.405204 49.8287C1.07364 54.3656 7.08961 57.1246 18.2966 58.0348C18.3677 58.0348 18.4388 58.0348 18.5099 58.0348L18.4957 58.0206Z" fill="#FFF2E8"/>
<path d="M96.6035 35.7346C95.1386 25.708 66.9362 26.5045 50.5096 28.5524C49.1017 28.7231 48.1061 30.0031 48.2768 31.4111C48.4474 32.8191 49.7274 33.8004 51.1354 33.644C78.3138 30.2449 91.199 34.3408 91.5119 36.4742C91.6968 37.7399 86.7191 42.6892 69.0695 47.4394C67.7042 47.8092 66.8935 49.2171 67.2633 50.5825C67.5761 51.7202 68.6001 52.4882 69.7379 52.4882C69.9512 52.4882 70.1788 52.4598 70.4064 52.4029C80.689 49.6296 97.7696 43.7985 96.5892 35.7488L96.6035 35.7346Z" fill="#FFF2E8"/>
<path d="M35.8609 68.488C27.5836 76.6657 23.829 76.9786 23.2743 76.6231C22.805 76.3102 21.6957 73.3093 24.8245 64.2783C27.6263 56.2286 32.7036 46.3869 39.1604 36.5594C44.7497 28.0262 50.0403 21.4698 54.5914 16.6343C55.3309 16.9472 56.1558 17.1178 57.0091 17.1178C60.4224 17.1178 63.1958 14.3445 63.1958 10.9312C63.1958 10.2628 63.0677 9.63701 62.8686 9.02546C66.353 6.39437 68.7566 5.46993 69.5815 6.01037C70.065 6.32326 71.2027 9.45212 67.8463 18.8529C67.377 20.1898 68.0739 21.6547 69.3966 22.124C70.7334 22.5933 72.1983 21.8965 72.6676 20.5738C76.2374 10.533 76.152 4.18994 72.3832 1.7153C69.2116 -0.361126 64.5895 1.28864 59.3842 5.21394C58.6447 4.90105 57.8483 4.73038 56.9949 4.73038C53.5816 4.73038 50.8083 7.50369 50.8083 10.917C50.8083 11.5712 50.9363 12.1828 51.1212 12.7801C45.5461 18.668 39.843 26.1204 34.8511 33.7292C28.1809 43.898 22.8903 54.1522 19.9606 62.5859C16.5757 72.3138 16.7464 78.4862 20.4441 80.9039C21.397 81.5297 22.4779 81.8426 23.701 81.8426C27.6263 81.8426 32.9027 78.5857 39.4448 72.1289C40.4546 71.1334 40.4688 69.512 39.4733 68.5023C38.4777 67.4925 36.8564 67.4783 35.8467 68.4738L35.8609 68.488Z" fill="#FFF2E8"/>
<path d="M62.314 57.3949C60.9487 57.7646 60.138 59.1726 60.5078 60.5379C63.6651 72.2143 62.2998 77.1494 61.1478 77.704C60.4652 78.0311 59.0714 77.5902 57.1514 76.2107C57.379 75.5707 57.5212 74.888 57.5212 74.1627C57.5212 70.7494 54.7478 67.9761 51.3345 67.9761C50.6661 67.9761 50.0261 68.1041 49.4288 68.3032C46.9257 65.1032 44.1809 61.0357 41.2795 55.9015C40.8244 55.0909 40.3693 54.266 39.9142 53.4269C39.2458 52.1754 37.6955 51.706 36.444 52.3745C35.1925 53.0429 34.7231 54.5931 35.3916 55.8447C35.8609 56.7264 36.3302 57.5797 36.8138 58.4189C39.4733 63.1264 42.5026 67.777 45.6315 71.745C45.3186 72.4845 45.148 73.2952 45.148 74.1343C45.148 77.5476 47.9212 80.3209 51.3345 80.3209C52.131 80.3209 52.8848 80.1644 53.5817 79.88C56.0705 81.7573 58.4883 82.8809 60.7069 82.8809C61.6314 82.8809 62.5274 82.696 63.3665 82.2835C69.4677 79.3396 67.8748 68.0757 65.4571 59.1584C65.0873 57.7931 63.6794 56.9824 62.314 57.3522V57.3949Z" fill="#FFF2E8"/>
<path d="M27.1854 31.5675C27.413 31.5675 27.6263 31.5391 27.8539 31.4822C29.2192 31.1124 30.0298 29.7044 29.6601 28.3391C26.5027 16.6628 27.8681 11.7419 29.02 11.173C29.7596 10.8175 32.9169 11.4006 38.7764 18.1988C39.7009 19.2654 41.3222 19.3934 42.3888 18.469C43.4555 17.5445 43.5835 15.9232 42.6591 14.8566C36.2165 7.37574 30.8689 4.58821 26.7872 6.55086C20.6859 9.49483 22.2788 20.7445 24.6966 29.676C25.0094 30.8138 26.0334 31.5675 27.1712 31.5675H27.1854Z" fill="#FFF2E8"/>
<path d="M52.1878 55.5033C56.9665 55.5033 60.8348 51.6349 60.8348 46.8563C60.8348 42.0777 56.9665 38.2093 52.1878 38.2093C47.4092 38.2093 43.5408 42.0777 43.5408 46.8563C43.5408 51.6349 47.4092 55.5033 52.1878 55.5033Z" fill="#FFF2E8"/>
</svg>
