<svg width="97" height="79" viewBox="0 0 97 79" fill="none" xmlns="http://www.w3.org/2000/svg">
<path d="M93.5277 15.0086C85.1839 -2.69695 61.8546 -1.77913 50.24 6.19755L50.1566 6.24761C46.0848 9.0845 43.2312 13.3732 42.3468 18.246C39.9438 31.6795 47.7369 43.8114 47.837 43.9783C48.7548 45.3634 48.371 47.2324 46.9859 48.1502C46.4686 48.484 45.9012 48.6341 45.3339 48.6341C44.3493 48.6341 43.3981 48.1669 42.814 47.2824C42.6639 47.0655 31.3163 29.3433 38.0247 11.3874C38.7756 9.36822 38.0581 7.04864 36.1724 6.01401C31.1828 3.26056 25.5591 3.12704 21.1702 3.91136C6.71875 6.51462 -0.990927 20.3486 0.243956 34.2327C2.31322 57.4785 24.3575 71.5629 44.5829 78.0711C46.5521 78.7052 48.6714 78.555 50.5237 77.6205L54.0281 75.8683C59.5851 73.0982 64.9752 69.9776 70.0649 66.4065C97.733 46.9153 99.7021 28.0917 93.5277 15.0086ZM81.7129 22.7683H81.6461C80.1776 22.735 78.7591 22.8518 77.4075 23.0353C76.8067 23.1188 76.4563 23.7529 76.6732 24.3203C77.4408 26.3896 78.125 28.6424 78.659 31.0621C79.0095 32.6808 77.9748 34.2828 76.3561 34.6332C76.1392 34.6833 75.9223 34.7 75.722 34.7C74.3369 34.7 73.0854 33.7488 72.785 32.3303C72.2677 29.9273 71.5501 27.6745 70.7491 25.672C70.5488 25.1881 69.9982 24.9544 69.5142 25.138C65.8763 26.5731 63.5734 28.1251 63.5234 28.1584C63.0061 28.5089 62.4053 28.6925 61.8212 28.6925C60.87 28.6925 59.9355 28.2419 59.3515 27.3908C58.4003 26.0391 58.734 24.1701 60.0857 23.2189C60.286 23.0854 62.7724 21.4 66.7107 19.7979C67.2614 19.581 67.4783 18.9135 67.1779 18.4129C66.0599 16.5606 65.2589 15.5092 65.2422 15.4759C64.2243 14.1742 64.4579 12.2885 65.7595 11.2706C67.0778 10.2527 68.9635 10.4696 69.9815 11.7879C70.115 11.9381 71.5668 13.8405 73.3357 17.0111C73.5359 17.3783 73.9531 17.5785 74.3536 17.495C76.6732 17.0278 79.1763 16.7441 81.7963 16.7942C83.4651 16.8276 84.7834 18.1959 84.75 19.848C84.7166 21.4834 83.3816 22.8017 81.7462 22.8017L81.7129 22.7683Z" fill="#FFF2E8"/>
</svg>
