<svg width="97" height="87" viewBox="0 0 97 87" fill="none" xmlns="http://www.w3.org/2000/svg">
<path d="M48.1183 66.8994C64.2592 66.8994 78.4934 63.1007 87.5394 59.9523C81.1096 75.3542 65.8851 86.2035 48.1626 86.2035C30.4401 86.2035 15.2451 75.369 8.8006 59.9819C17.8466 63.1303 32.0365 66.8994 48.1183 66.8994Z" fill="#FFF2E8"/>
<path d="M95.8316 45.2452C94.9151 43.2498 92.8606 42.1264 90.7912 42.2742C90.1261 19.334 71.2654 0.887222 48.1626 0.887222C25.0598 0.887222 6.19912 19.334 5.53397 42.2742C3.46462 42.1264 1.42484 43.2498 0.493631 45.2452C-0.703636 47.8319 0.40494 50.9064 3.00641 52.1184C3.83415 52.5027 23.5669 61.5783 48.1626 61.5783C72.7583 61.5783 92.5058 52.5027 93.3336 52.1184C95.9203 50.9064 97.0288 47.8467 95.8316 45.2452ZM34.2093 40.5744C31.3713 40.5744 30.2775 38.106 29.7749 35.5341C29.5237 34.189 29.4202 32.8143 29.3167 31.7501C29.0063 28.6017 28.9176 25.409 29.2133 22.2607C29.4498 19.6296 29.7306 16.4369 31.5487 14.3676C32.2434 13.5842 33.1598 13.1407 34.2093 13.1407C35.8352 13.1407 37.2689 14.1754 38.0228 15.6092C38.7175 16.9543 38.5401 18.4176 38.3627 19.8661C38.1558 21.3886 38.0671 22.9406 37.9932 24.4778C37.9193 26.4141 37.9341 28.3652 38.0523 30.3016C38.1115 31.2475 38.2002 32.1935 38.3036 33.1395C38.3923 34.0264 38.6288 34.9133 38.614 35.8001C38.5992 38.1947 36.6925 40.5744 34.2093 40.5744ZM48.2661 49.65C44.8516 49.65 42.0728 47.1224 42.0728 44.0036C42.0728 42.7768 43.0631 41.7865 44.29 41.7865C45.5168 41.7865 46.5071 42.7768 46.5071 44.0036C46.5071 44.5801 47.2314 45.2157 48.2661 45.2157C49.3007 45.2157 50.0102 44.5801 50.0102 44.0036C50.0102 42.7768 51.0006 41.7865 52.2274 41.7865C53.4542 41.7865 54.4446 42.7768 54.4446 44.0036C54.4446 47.1224 51.6657 49.65 48.2661 49.65ZM67.2006 31.7501C67.0972 32.8143 66.9937 34.189 66.7424 35.5341C66.2398 38.106 65.146 40.5744 62.3081 40.5744C59.8249 40.5744 57.9181 38.1947 57.9033 35.8001C57.8885 34.9133 58.125 34.0264 58.2137 33.1395C58.3172 32.1935 58.4059 31.2475 58.465 30.3016C58.5833 28.3652 58.6128 26.4141 58.5241 24.4778C58.4502 22.9406 58.3615 21.3886 58.1694 19.8661C57.9772 18.4176 57.7999 16.9543 58.4946 15.6092C59.2484 14.1754 60.6822 13.1407 62.3081 13.1407C63.3575 13.1407 64.274 13.5842 64.9687 14.3676C66.7868 16.4369 67.0676 19.6296 67.3041 22.2607C67.5997 25.409 67.511 28.6017 67.2006 31.7501Z" fill="#FFF2E8"/>
</svg>
