<svg width="97" height="88" viewBox="0 0 97 88" fill="none" xmlns="http://www.w3.org/2000/svg">
<path d="M77.6345 1.20288C75.6968 0.668331 73.6588 0.885493 72.0217 2.00471C59.0589 9.17104 46.664 17.3731 35.0208 26.5273C23.3776 35.6815 12.4527 45.7878 2.42982 56.6626C-0.543624 59.3354 -0.359872 64.3134 2.79732 67.7378C8.96137 74.4197 12.0183 77.744 18.1657 84.4259C21.1725 87.6833 25.4824 88.2847 28.0716 85.946C28.2052 85.8124 28.3389 85.6954 28.4558 85.5618C28.6061 85.3947 28.673 85.3279 28.8233 85.1943C38.0944 75.0044 48.2008 65.5996 59.0255 57.0969C69.8501 48.5942 81.3764 40.9936 93.4539 34.4119C93.621 34.3284 93.8047 34.2281 93.9384 34.1112C97.0621 32.0064 97.5299 27.3124 94.9072 23.3367C90.0127 16.0033 87.5739 12.3449 82.6961 4.99486C81.3931 3.07381 79.5556 1.75414 77.6345 1.20288ZM66.1584 39.1393C67.6451 41.027 66.8934 43.9169 64.5881 45.1697C58.0232 49.4629 51.8591 54.3239 46.1294 59.6695C45.9457 59.8699 45.7619 60.037 45.5614 60.204C43.774 61.6072 41.2349 61.4736 39.8985 59.7697L28.6061 45.3869C27.4535 43.9169 27.6039 41.762 28.9903 40.2586C31.9805 36.9844 35.2546 33.9776 38.7292 31.238C42.2038 28.4984 45.9122 26.0428 49.8044 23.9046C50.7065 23.4202 51.6754 23.2531 52.5774 23.3868C53.4628 23.5371 54.298 24.0048 54.8827 24.7399L66.1751 39.1226L66.1584 39.1393Z" fill="#FFF2E8"/>
<path d="M54.3314 38.9556C55.8906 38.9556 57.1545 37.6917 57.1545 36.1325C57.1545 34.5734 55.8906 33.3094 54.3314 33.3094C52.7722 33.3094 51.5083 34.5734 51.5083 36.1325C51.5083 37.6917 52.7722 38.9556 54.3314 38.9556Z" fill="#FFF2E8"/>
<path d="M51.0907 49.8304C52.6498 49.8304 53.9138 48.5665 53.9138 47.0073C53.9138 45.4481 52.6498 44.1842 51.0907 44.1842C49.5315 44.1842 48.2676 45.4481 48.2676 47.0073C48.2676 48.5665 49.5315 49.8304 51.0907 49.8304Z" fill="#FFF2E8"/>
<path d="M39.7648 50.3983C41.3239 50.3983 42.5878 49.1344 42.5878 47.5752C42.5878 46.0161 41.3239 44.7521 39.7648 44.7521C38.2056 44.7521 36.9417 46.0161 36.9417 47.5752C36.9417 49.1344 38.2056 50.3983 39.7648 50.3983Z" fill="#FFF2E8"/>
<path d="M43.006 39.5403C44.5651 39.5403 45.8291 38.2763 45.8291 36.7172C45.8291 35.158 44.5651 33.8941 43.006 33.8941C41.4468 33.8941 40.1829 35.158 40.1829 36.7172C40.1829 38.2763 41.4468 39.5403 43.006 39.5403Z" fill="#FFF2E8"/>
</svg>
