<svg width="98" height="91" viewBox="0 0 98 91" fill="none" xmlns="http://www.w3.org/2000/svg">
<path d="M93.6797 16.2758L69.9623 1.63804C68.2189 0.56783 66.2166 -0.00180054 64.1797 -0.00180054H34.0066C31.9697 -0.00180054 29.9674 0.56783 28.224 1.63804L4.50667 16.2758C4.31679 16.3966 4.12691 16.5175 3.93704 16.6556C2.90135 17.3805 2.29719 18.6234 2.52159 19.8489C2.52159 19.8489 2.52159 19.8489 2.52159 19.8662C2.95313 22.0412 4.23049 23.8709 6.11199 25.0447L29.8293 39.6824C31.0721 40.4592 32.5221 40.8735 33.9894 40.8735H64.1452C65.6125 40.8735 67.0624 40.4592 68.3052 39.6824L92.0226 25.0447C93.9041 23.8709 95.1987 22.0412 95.6302 19.8662C95.6302 19.8662 95.6302 19.8662 95.6302 19.8489C95.8719 18.6061 95.2332 17.3633 94.1975 16.6383C94.0249 16.5175 93.835 16.3966 93.6624 16.2931L93.6797 16.2758ZM62.8333 21.7822C57.5858 23.3013 53.3568 26.0804 51.0437 29.5327C50.3015 30.6374 47.8849 30.6374 47.1426 29.5327C44.8296 26.0804 40.6005 23.3013 35.3357 21.7822C33.6614 21.2817 33.6614 19.6936 35.3357 19.2103C40.6005 17.6913 44.8296 14.9122 47.1426 11.4598C47.8849 10.3551 50.3015 10.3551 51.0437 11.4598C53.3568 14.9122 57.5858 17.6913 62.8333 19.2103C64.525 19.6936 64.525 21.2817 62.8333 21.7822Z" fill="#FFF2E8"/>
<path d="M96.8386 32.0701L58.0519 86.254C53.6502 92.3991 44.5189 92.3991 40.1172 86.254L1.33056 32.0701C0.277611 30.6029 1.5377 29.4981 2.86684 30.3267L26.5842 44.9645C28.8109 46.3454 31.3829 47.0704 34.0066 47.0704H64.1625C66.7863 47.0704 69.3582 46.3454 71.585 44.9645L95.3023 30.3267C96.6487 29.4981 97.9088 30.5856 96.8386 32.0701Z" fill="#FFF2E8"/>
</svg>
