<svg width="97" height="97" viewBox="0 0 97 97" fill="none" xmlns="http://www.w3.org/2000/svg">
<path fill-rule="evenodd" clip-rule="evenodd" d="M48.8491 96.4105C50.4666 96.4105 54.9325 84.9934 57.2444 68.5273C70.5226 78.536 81.7537 83.4513 82.8975 82.3076C84.0413 81.1638 79.1261 69.9329 69.1177 56.655C85.5834 54.3431 97.0002 49.8773 97.0002 48.2598C97.0002 46.6423 85.5834 42.1765 69.1175 39.8646C79.1259 26.5867 84.0411 15.3559 82.8973 14.2121C81.7535 13.0683 70.5225 17.9836 57.2444 27.9923C54.9325 11.5262 50.4666 0.109146 48.8491 0.109146C47.2316 0.109146 42.7658 11.5258 40.4539 27.9914C27.1763 17.9834 15.9459 13.0685 14.8022 14.2122C13.6584 15.356 18.5735 26.5867 28.5819 39.8645C12.1159 42.1764 0.698853 46.6423 0.698853 48.2598C0.698853 49.8773 12.1158 54.3432 28.5817 56.6551C18.5734 69.9329 13.6582 81.1637 14.802 82.3074C15.9458 83.4512 27.1762 78.5362 40.4539 68.5281C42.7658 84.9938 47.2315 96.4105 48.8491 96.4105ZM48.8517 68.2609C48.8517 57.2167 57.807 48.2615 68.8512 48.2615C57.807 48.2615 48.8517 39.3062 48.8517 28.2588C48.8517 39.3062 39.8965 48.2615 28.8491 48.2615C39.8965 48.2615 48.8517 57.2167 48.8517 68.2609Z" fill="#FFF2E8"/>
</svg>
