<svg width="97" height="96" viewBox="0 0 97 96" fill="none" xmlns="http://www.w3.org/2000/svg">
<path d="M35.0301 2.18707L0.761927 90.9638C-0.064211 93.1283 1.52195 95.4415 3.83513 95.4415H33.7413C35.0962 95.4415 36.3189 94.5988 36.8145 93.3266L71.0828 4.54983C71.9089 2.38534 70.3227 0.0721588 68.0095 0.0721588H38.1033C36.7485 0.0721588 35.5258 0.914819 35.0301 2.18707ZM8.87456 86.4531L39.1112 8.13526C39.6069 6.86301 40.8296 6.02035 42.1844 6.02035H49.0744C50.545 6.02035 51.5528 7.49088 51.0241 8.86227L20.7049 87.3949C20.2092 88.6672 18.9865 89.5098 17.6316 89.5098H10.973C9.40332 89.5098 8.3128 87.9402 8.89109 86.4697L8.87456 86.4531Z" fill="#FFF2E8"/>
<path d="M78.2867 95.4415C88.5343 95.4415 96.8417 87.1341 96.8417 76.8865C96.8417 66.6388 88.5343 58.3314 78.2867 58.3314C68.039 58.3314 59.7316 66.6388 59.7316 76.8865C59.7316 87.1341 68.039 95.4415 78.2867 95.4415Z" fill="#FFF2E8"/>
</svg>
