<svg width="98" height="137" viewBox="0 0 98 137" fill="none" xmlns="http://www.w3.org/2000/svg">
<path d="M96.9207 84.4561C96.7338 83.0439 96.4846 81.6525 96.1315 80.2611C95.0308 75.7337 92.4556 71.5594 91.0434 67.0943C89.5689 62.4008 88.1359 57.6242 87.9075 52.6607C87.8867 52.1 87.866 51.5393 87.6583 50.9993C87.2429 49.8779 85.893 49.2548 84.8131 49.6286C84.8131 49.6286 84.6054 49.7117 84.2524 49.8986C81.9056 51.0824 79.7873 52.723 77.9805 54.6129C77.4405 55.1736 76.9421 55.7551 76.4645 56.3574C75.9453 57.0219 75.2599 57.998 75.1146 57.9565C74.9692 57.9149 74.99 57.3543 74.9484 56.8351C74.9069 56.2743 74.8653 55.7343 74.8238 55.1736C74.72 54.0729 74.5746 52.9722 74.3877 51.8715C74.0139 49.6909 73.4947 47.5311 72.7886 45.4335C72.0825 43.336 71.1895 41.2592 70.1095 39.3071C67.202 34.0113 63.3185 29.3801 59.9749 24.375C55.8629 18.2693 54.8245 11.1875 56.4028 3.89801C56.922 1.55125 54.3053 -0.0893826 52.54 1.44743C37.2342 14.8219 31.71 34.9251 29.7163 47.0742C29.6747 47.3442 29.3009 47.3442 29.2178 47.0742C27.1203 39.224 19.5608 33.9697 15.4488 32.6614C13.4343 32.0383 11.7314 34.2397 12.6659 36.1919C14.7635 40.5739 15.4073 45.1635 13.7251 49.774C10.8799 57.5411 5.33492 64.0622 3.13353 72.0993C0.828314 80.4895 0.205282 89.0874 1.94977 97.6645C4.91956 112.119 14.6389 124.683 27.9095 131.163C32.5199 133.406 37.4626 134.922 42.5507 135.607C56.9635 137.58 71.7294 132.887 82.321 122.897C92.6841 113.116 98.769 98.6405 96.9207 84.4353V84.4561ZM30.7131 110.686C26.9957 110.686 25.5627 107.425 24.9189 104.061C24.5659 102.296 24.4412 100.489 24.2959 99.0974C23.8805 94.9438 23.7767 90.7696 24.1505 86.616C24.4828 83.2309 24.8358 79.0773 27.1411 76.3567C27.8472 75.526 28.7817 74.903 29.8616 74.7161C32.333 74.2799 34.6174 75.7544 35.7181 77.8727C36.6527 79.638 36.4035 81.5486 36.175 83.4593C35.905 85.4737 35.7804 87.509 35.6974 89.5235C35.5935 92.0779 35.6143 94.6323 35.7597 97.166C35.8427 98.4328 35.9881 99.6582 36.1127 100.904C36.2166 102.046 36.5281 103.209 36.5073 104.393C36.4865 107.529 33.9944 110.665 30.7131 110.665V110.686ZM49.1756 122.606C44.669 122.606 41.0347 119.284 41.0347 115.192C41.0347 113.593 42.343 112.285 43.9422 112.285C45.5413 112.285 46.8497 113.593 46.8497 115.192C46.8497 115.94 47.805 116.771 49.1549 116.771C50.5048 116.771 51.4393 115.94 51.4393 115.192C51.4393 113.593 52.7477 112.285 54.3468 112.285C55.9459 112.285 57.2543 113.593 57.2543 115.192C57.2543 119.263 53.6199 122.606 49.1341 122.606H49.1756ZM74.0554 99.0974C73.9308 100.489 73.7854 102.296 73.4324 104.061C72.7886 107.425 71.3556 110.686 67.6382 110.686C64.3569 110.686 61.8647 107.529 61.844 104.414C61.8232 103.251 62.1347 102.067 62.2386 100.925C62.3632 99.6789 62.5085 98.4328 62.5916 97.1868C62.737 94.6531 62.7577 92.0987 62.6539 89.5443C62.5708 87.5298 62.4255 85.4945 62.1762 83.4801C61.9478 81.5902 61.7194 79.6588 62.6331 77.8935C63.7338 75.7752 66.0183 74.3007 68.4896 74.7368C69.5488 74.9238 70.5041 75.5468 71.2102 76.3775C73.5154 79.0981 73.8685 83.2308 74.2008 86.6367C74.5746 90.7903 74.4708 94.9646 74.0554 99.1182V99.0974Z" fill="#FFF2E8"/>
</svg>
