<svg width="97" height="97" viewBox="0 0 97 97" fill="none" xmlns="http://www.w3.org/2000/svg">
<path d="M54.8901 0.571464C28.5633 -3.08225 4.27197 15.3198 0.601568 41.6465C-3.03546 67.99 15.3499 92.298 41.6933 95.9351C68.0368 99.5888 92.3448 81.1867 95.9818 54.86C99.6356 28.5165 81.2335 4.20849 54.8901 0.571464ZM59.9285 68.6073C59.6783 70.309 58.3269 71.31 56.9088 71.31C56.4583 71.31 56.0079 71.2099 55.5908 71.0097C51.1029 68.7908 47.8329 65.9045 45.4972 62.7513C45.2136 62.3676 44.6463 62.3676 44.3794 62.7513C43.4117 64.1527 42.2606 66.405 41.3763 69.8586C41.026 71.2099 39.8081 72.1108 38.4734 72.1108C38.2732 72.1108 38.0563 72.0942 37.8561 72.0441C36.1544 71.6771 35.1867 69.7584 35.6372 68.0901C36.0376 66.5886 36.488 65.2539 36.9719 64.0693C37.122 63.6689 36.8217 63.2685 36.4046 63.3186C35.6205 63.402 34.7863 63.452 33.9021 63.452C31.483 63.452 28.6301 63.1017 25.3434 62.2008C23.9086 61.817 22.8575 60.4323 23.0244 58.9475C23.2412 57.0622 25.0431 55.8944 26.7782 56.3782C35.437 58.7306 39.3743 56.7285 40.9092 55.3772C41.2929 55.0435 41.4264 54.543 41.2929 54.0592C39.8581 48.954 40.0083 44.0323 40.709 40.7623C41.026 39.2441 42.3607 38.0762 43.9123 38.2097C45.7808 38.3599 47.0154 40.1116 46.615 41.8634C46.4648 42.5475 43.2282 58.13 58.1267 65.5875C59.2779 66.1715 60.1121 67.356 59.9285 68.6406V68.6073ZM59.2946 20.9088C58.1934 18.0392 59.6449 14.836 62.5145 13.7348C65.3841 12.6504 68.5873 14.0852 69.6885 16.9548C70.7729 19.8244 69.3381 23.0443 66.4685 24.1287C63.5989 25.2132 60.379 23.7784 59.2946 20.9088ZM78.9646 60.0819C72.5914 61.2498 66.2683 55.8443 64.8335 48.0197C63.3987 40.1951 67.4028 32.9043 73.7759 31.7365C80.1491 30.5686 86.4722 35.9741 87.907 43.7987C89.3418 51.6233 85.3377 58.9141 78.9646 60.0819Z" fill="#FFF2E8"/>
</svg>
