<svg width="98" height="34" viewBox="0 0 98 34" fill="none" xmlns="http://www.w3.org/2000/svg">
<path d="M6.94138 30.8035C5.10611 30.8035 3.73801 29.402 3.73801 27.5501V24.3133C3.78806 27.5667 6.3908 30.303 9.47738 30.303C9.71096 30.303 9.94454 30.303 10.1781 30.2529L14.3659 29.6022C17.7861 29.0183 19.9718 26.6658 19.9718 23.5792V10.4821C19.9718 7.96278 18.587 5.84388 16.5849 4.92625C27.4296 4.2422 38.2577 3.89183 48.8855 3.89183C59.5134 3.89183 70.3414 4.2422 81.1862 4.92625C79.1674 5.86057 77.7993 7.97946 77.7993 10.4821V23.5792C77.7993 26.6658 79.9849 29.0183 83.3551 29.5855L87.5262 30.2195C87.8265 30.2529 88.0601 30.2696 88.2936 30.2696C91.3802 30.2696 93.9996 27.5334 94.033 24.28V26.9995C94.033 28.0339 93.6493 28.9849 92.9652 29.6856C92.2812 30.3697 91.3469 30.7534 90.3291 30.7534C90.3291 30.7534 90.1122 30.7534 89.9954 30.7534C76.3811 29.6523 62.5499 29.085 48.9022 29.085C35.2545 29.085 21.4066 29.6356 7.79227 30.7534L7.32511 30.7868C7.17496 30.7868 7.07485 30.7868 6.97475 30.7868L6.94138 30.8035ZM41.4277 6.97841C37.4735 6.97841 34.2534 10.1985 34.2534 14.1526C34.2534 21.6438 40.8103 27.7503 48.8855 27.7503C56.9607 27.7503 63.5176 21.6438 63.5176 14.1526C63.5176 10.1985 60.2975 6.97841 56.3434 6.97841C52.6561 6.97841 49.6029 9.78136 49.2192 13.3685C49.1358 13.3852 49.019 13.4018 48.8855 13.4018C48.752 13.4018 48.6352 13.4018 48.5351 13.3685C48.1347 9.78136 45.0982 6.97841 41.4277 6.97841ZM94.033 11.0327C93.9996 8.61346 92.6315 6.61136 90.4125 5.57694C91.3469 5.61031 92.2478 6.01073 92.9319 6.6781C93.6493 7.39552 94.033 8.34652 94.033 9.34757V11.0327ZM3.73801 9.34757C3.73801 7.3121 5.33969 5.66036 7.3418 5.57694C5.1228 6.61136 3.77138 8.61346 3.73801 11.0327V9.34757Z" fill="#FFF2E8"/>
<path d="M48.8855 6.8949C48.9856 6.8949 49.0857 6.8949 49.2025 6.8949C49.0857 6.99501 48.9856 7.1118 48.8855 7.22859C48.7854 7.1118 48.6686 7.01169 48.5685 6.8949C48.6686 6.8949 48.7854 6.8949 48.8855 6.8949ZM34.0699 7.12848C32.3181 8.96374 31.2503 11.433 31.2503 14.1525C31.2503 18.9075 33.3859 23.2121 36.8062 26.2486C32.0011 26.3654 27.196 26.5489 22.391 26.7992C22.758 25.8148 22.9582 24.747 22.9582 23.6125V10.5154C22.9582 9.49764 22.8081 8.52995 22.5245 7.61232C26.3785 7.41211 30.2159 7.26195 34.0533 7.14516M63.7011 7.12848C67.5385 7.24527 71.3759 7.39543 75.2299 7.59564C74.9463 8.49659 74.7961 9.48095 74.7961 10.4987V23.5958C74.7961 24.7303 74.9963 25.7981 75.3634 26.7825C70.5583 26.5322 65.7533 26.3487 60.9482 26.2319C64.3685 23.1954 66.5041 18.9075 66.5041 14.1359C66.5041 11.4163 65.4363 8.94706 63.6844 7.11179M48.8855 0.88858C35.071 0.88858 21.2565 1.45584 7.49197 2.557C3.75471 2.557 0.734863 5.59353 0.734863 9.3308V27.5333C0.734863 31.087 3.48776 33.7899 6.94139 33.7899C7.12492 33.7899 7.30845 33.7899 7.49197 33.7732L8.00918 33.7398C21.6235 32.6387 35.2545 32.0881 48.8855 32.0881C62.5165 32.0881 76.1476 32.6387 89.7452 33.7398C89.9454 33.7398 90.1289 33.7565 90.3125 33.7565C94.0497 33.7565 97.0362 30.8368 97.0362 27.0161V9.3308C97.0362 7.46217 96.2687 5.76037 95.0508 4.54243C93.8328 3.32448 92.131 2.557 90.2791 2.557C76.4979 1.45584 62.6834 0.88858 48.8855 0.88858ZM88.2937 27.2997C88.1936 27.2997 88.0935 27.2997 87.9767 27.283L83.8557 26.649C82.0871 26.3487 80.8025 25.2809 80.8025 23.5958V10.4987C80.8025 8.91369 81.8202 7.42879 83.5387 7.42879C83.6388 7.42879 83.7556 7.4288 83.8557 7.44548L87.9767 7.92932C89.8787 8.29638 91.0299 9.44759 91.0299 11.1327V24.2298C91.0299 25.8148 89.8286 27.2997 88.2937 27.2997ZM9.4774 27.2997C7.94245 27.2997 6.74118 25.8148 6.74118 24.2298V11.1327C6.74118 9.44759 7.89239 8.29638 9.77771 7.92932L13.9154 7.44548C14.0322 7.44548 14.1323 7.42879 14.2324 7.42879C15.9342 7.42879 16.9686 8.91369 16.9686 10.4987V23.5958C16.9686 25.2809 15.6839 26.3487 13.9154 26.649L9.7944 27.283C9.69429 27.283 9.59418 27.2997 9.4774 27.2997ZM48.8855 16.3882C50.8209 16.3882 52.1723 15.2036 52.1723 14.1359C52.1723 11.8334 54.041 9.9648 56.3434 9.9648C58.6458 9.9648 60.5144 11.8334 60.5144 14.1359C60.5144 19.9753 55.2923 24.7303 48.8855 24.7303C42.4788 24.7303 37.2566 19.9753 37.2566 14.1359C37.2566 11.8334 39.1253 9.9648 41.4277 9.9648C43.7301 9.9648 45.5821 11.8334 45.5821 14.1359C45.5821 15.2036 46.9335 16.3882 48.8855 16.3882Z" fill="#FFF2E8"/>
</svg>
