<svg xmlns="http://www.w3.org/2000/svg" width="23" height="27" viewBox="0 0 23 27" fill="none">
<path fill-rule="evenodd" clip-rule="evenodd" d="M7.59967 6.84518L7.51299 8.22418C7.42445 9.10559 6.95867 9.82047 6.38385 10.3953C7.24648 10.3394 8.32129 10.0375 9.48309 9.55853L7.92284 0.073612V6.52306e-05H9.97165L10.7728 6.03616C10.8319 6.48546 10.8888 6.92733 10.937 7.35546C11.1746 7.61201 11.4786 7.80831 11.8366 7.92736C12.8636 8.25044 14.3635 8.19003 16.0367 7.86695C15.0674 7.07369 14.0693 5.98625 14.3031 4.75434C14.348 4.34299 14.4099 3.93942 14.4712 3.53994L14.4712 3.53991L14.4712 3.53988C14.5281 3.16902 14.5844 2.8017 14.6261 2.43499C14.7049 2.12473 14.7815 2.04102 14.9605 1.84562L14.9605 1.84561L14.9607 1.84548C14.9847 1.81925 15.0106 1.79101 15.0385 1.75994C15.858 0.79332 16.9455 0.0289586 17.9725 6.52306e-05C19.559 6.52306e-05 20.8225 1.26349 21.4975 2.29315L21.3793 2.58734C18.5872 1.6181 16.5331 2.05675 15.2381 3.32018C17.4314 6.51421 19.7613 6.47744 22.9973 5.37686L23 5.37424V8.23993C18.335 9.91838 14.2085 11.2054 11.8366 10.7195C11.5286 10.6524 11.2499 10.5554 11.0033 10.4252C10.7338 11.8375 9.28285 12.8463 7.73998 13.2151C7.57335 14.5526 8.15762 15.2672 9.20209 15.4948C10.8175 15.8179 12.9924 14.9064 13.3732 13.8505C13.2866 13.3803 13.2261 12.8813 13.1973 12.3507L13.9327 11.7334C14.0798 13.7612 14.8442 14.6122 16.1654 14.8197C16.1654 14.8197 16.8877 15.0509 18.2851 14.6832C20.0424 14.2209 23 13.4302 23 13.4302V16.2093C22.9317 16.2338 22.8622 16.2571 22.7916 16.2809L22.7913 16.281L22.7912 16.281C22.756 16.2928 22.7205 16.3047 22.6848 16.317L18.1328 17.344C15.753 17.7564 14.4896 17.1102 13.8145 15.5237C13.5755 16.4168 13.0817 17.1916 12.3935 17.7248C11.9128 18.0978 11.3376 18.3552 10.6888 18.4524C10.2265 18.5207 9.73005 18.5102 9.20209 18.4025C7.4325 18.0231 6.63719 16.3224 7.47229 13.2724C6.01615 13.5488 4.53432 13.2482 3.9303 12.1747C3.89313 12.1053 3.85872 12.033 3.82713 11.9578C2.71228 12.4375 1.41354 12.8499 0.000705905 13.1597V10.3255C1.33494 10.0692 2.58233 9.71352 3.68726 9.25589C3.75108 8.89208 3.84132 8.50365 3.9592 8.09021L4.22449 7.97201C4.15462 8.38223 4.14597 8.73542 4.19152 9.03529C5.08444 8.62279 5.86999 8.13756 6.51485 7.57802V7.49134L1.054 7.02116C0.612721 6.99227 0.00333258 6.90296 0.00333258 6.375L0.0900128 3.96634C0.1478 2.35094 4.57374 -0.320385 6.01316 0.0315888C6.24956 0.0920023 6.36513 0.239096 6.30735 0.617337L5.83454 2.93931C5.82273 2.93931 5.80609 2.93449 5.78641 2.92878C5.75796 2.92052 5.72317 2.91042 5.68745 2.91042C4.7471 1.85187 2.22287 3.76146 1.42962 4.40762L5.74786 4.8778C7.01129 5.02489 7.65745 5.52396 7.59704 6.8478L7.59967 6.84518ZM1.98658 16.3905L2.45938 15.2321L4.02225 16.0464C4.1457 16.12 4.19561 16.1935 4.17197 16.2933C4.14833 16.4168 4.37159 16.514 4.41887 16.3931L4.96522 15.0378C5.11494 14.6937 4.91532 14.4468 4.59223 14.2734L3.25263 13.509L3.10291 13.5589L2.58283 14.7672C2.55919 14.5702 2.3832 14.3969 2.15994 14.2734L0.820333 13.509L0.670613 13.5589L0.00081179 15.1113V15.2348L1.58995 16.049C1.7134 16.1226 1.76331 16.1961 1.73967 16.2959C1.71603 16.4194 1.9393 16.5166 1.9892 16.3958L1.98658 16.3905ZM11.918 6.52209L12.0231 6.68495H12.0257C13.4284 5.49244 13.4651 4.06878 13.3128 3.03912L12.9057 6.52306e-05H12.7087C12.6167 0.0919984 12.5255 0.183932 12.4342 0.275865C12.3429 0.367799 12.2516 0.459732 12.1597 0.551666L11.6711 1.04548C11.6545 1.06211 11.6373 1.07846 11.6201 1.0948L11.6201 1.0948C11.5856 1.12749 11.5512 1.16018 11.5214 1.1952C11.4398 1.29189 11.4829 1.44658 11.5186 1.57444L11.5186 1.57446C11.5265 1.6029 11.5341 1.63002 11.5398 1.65487C11.5569 1.72841 11.5733 1.8013 11.5897 1.87419C11.6061 1.94708 11.6225 2.01998 11.6396 2.09352L11.813 2.87364C11.9312 3.42262 12.0494 3.97422 12.1387 4.52845C12.1886 4.83839 12.2359 5.15622 12.2306 5.47405C12.228 5.6658 12.2017 5.85229 12.1387 6.03353C12.1124 6.11233 12.0783 6.19113 12.0415 6.2673C12.038 6.27422 12.0295 6.28935 12.0185 6.30898L12.0184 6.30903L12.0184 6.30906L12.0184 6.30909C11.9791 6.37898 11.9078 6.5057 11.918 6.52209ZM19.9242 10.139L16.7984 14.2209C16.7984 14.2209 17.899 14.6306 18.3876 14.0344L19.6562 12.4899C20.3628 11.5916 21.5527 11.4261 22.9974 12.1038V9.29849C21.8915 9.00167 20.6307 9.18554 19.9215 10.139H19.9242ZM6.16301 17.3703L0.964826 16.7819H0.962199C0.904412 16.7819 0.843999 16.7819 0.786212 16.8108L0.287144 19.1905C0.304388 19.2221 0.320846 19.2632 0.336947 19.3034C0.350278 19.3366 0.363365 19.3692 0.376451 19.3954L0.670639 19.4243C0.465758 20.0994 0.289771 20.777 0.171571 21.481C-0.211923 23.4799 -0.15151 25.9752 2.49092 26.1223C4.48719 26.2116 6.89585 24.3887 7.30824 22.2165L7.72063 20.0127C8.0726 18.3684 7.51312 17.5751 6.16301 17.3703ZM6.25232 20.0127C7.45796 20.2176 4.8129 24.1234 1.87628 23.1253H1.87365C1.25901 22.9204 0.846626 22.4502 0.846626 21.481C0.846626 21.3896 0.846048 21.2986 0.845472 21.2078C0.841973 20.6563 0.838528 20.1131 0.964826 19.5583L6.25232 20.0127ZM21.4686 22.403C19.0311 20.5669 16.9691 19.6633 16.7616 19.8735C16.5515 20.0836 17.4524 22.1455 19.2911 24.5805C16.3098 25.0007 14.2295 25.8045 14.1744 26.1118H19.6089C21.4213 25.9805 22.8686 24.5332 23 22.7208V17.2862C22.6926 17.3414 21.8889 19.4217 21.4686 22.403ZM15.9395 20.5538C16.1233 20.9924 16.2547 21.4442 16.3413 21.9039L16.344 21.9065C16.4648 22.5395 16.4595 24.2495 16.4201 24.4439C16.3913 24.5831 16.2783 24.6671 16.1338 24.6593C15.6821 24.6356 12.5038 24.4386 12.0546 24.4097L12.0914 26.125H7.72324L8.89736 24.3283L7.93337 24.218C7.80002 24.1995 7.80287 24.1362 7.81051 23.9667C7.81265 23.9191 7.81517 23.8633 7.81517 23.7977C7.81517 23.7906 7.81512 23.7763 7.81506 23.7558C7.81412 23.4677 7.8092 21.9523 7.87296 21.7463C7.92035 21.5867 8.15723 21.6094 8.30244 21.6233C8.31015 21.6241 8.3176 21.6248 8.32475 21.6255C8.42138 21.6333 10.7708 21.7187 12.7216 21.7897C14.0584 21.8383 15.208 21.8802 15.3169 21.8855C14.6865 20.6536 13.9038 20.1729 13.2629 20.1729C12.903 20.1755 12.5694 20.3358 12.2254 20.6982C11.9075 21.0371 11.4505 21.2078 10.9882 21.1632C11.1616 20.6431 11.3454 20.1624 11.5634 19.6738C11.7342 19.2536 11.9784 18.8753 12.2674 18.5733C12.6824 18.1346 13.1893 17.8562 13.7015 17.8404C13.783 17.8378 13.8644 17.8431 13.9406 17.8588C14.2164 17.914 14.4554 18.0506 14.6655 18.2397C15.1935 18.723 15.5034 19.4296 15.7582 20.0836C15.7851 20.1509 15.8101 20.2181 15.835 20.2852C15.8685 20.3753 15.9018 20.465 15.9395 20.5538Z" fill="#140f13"/>
</svg>